<?xml version="1.0" encoding="iso-8859-1"?>
<!-- Generator: Adobe Illustrator 15.0.0, SVG Export Plug-In . SVG Version: 6.00 Build 0)  -->
<!DOCTYPE svg PUBLIC "-//W3C//DTD SVG 1.1//EN" "http://www.w3.org/Graphics/SVG/1.1/DTD/svg11.dtd">
<svg version="1.1" id="Layer_1" xmlns="http://www.w3.org/2000/svg" xmlns:xlink="http://www.w3.org/1999/xlink" x="0px" y="0px"
	 width="28px" height="14px" viewBox="0 0 28 14" style="enable-background:new 0 0 28 14;" xml:space="preserve">
<path id="new_x5F_blue_2_" style="fill:#0088CC;" d="M28,11c0,1.7-1.3,3-3,3H3c-1.7,0-3-1.3-3-3V3c0-1.7,1.3-3,3-3h22
	c1.7,0,3,1.3,3,3V11z"/>
<g id="RSS">
	<path style="fill:#FFFFFF;" d="M6.8,4.1c0.4-0.1,1-0.2,1.7-0.2c0.9,0,1.5,0.1,1.9,0.5c0.3,0.3,0.5,0.7,0.5,1.2
		c0,0.8-0.5,1.3-1.1,1.5l0,0c0.4,0.2,0.7,0.6,0.8,1.2c0.2,0.8,0.4,1.5,0.5,1.7H10C9.9,9.8,9.8,9.3,9.6,8.6c-0.2-0.8-0.5-1-1.1-1.1
		H7.9V10H6.8V4.1z M7.9,6.7h0.7c0.7,0,1.2-0.4,1.2-1c0-0.7-0.5-1-1.2-1c-0.4,0-0.6,0-0.7,0.1V6.7z"/>
	<path style="fill:#FFFFFF;" d="M12.6,8.8C12.9,9,13.5,9.2,14,9.2c0.7,0,1.1-0.3,1.1-0.8s-0.3-0.7-1.1-1c-1-0.4-1.6-0.9-1.6-1.8
		c0-1,0.8-1.7,2.2-1.7c0.7,0,1.1,0.1,1.5,0.3l-0.3,0.9c-0.2-0.1-0.6-0.3-1.2-0.3c-0.7,0-1,0.4-1,0.7c0,0.5,0.4,0.7,1.2,1
		c1.1,0.4,1.6,0.9,1.6,1.8c0,1-0.7,1.8-2.3,1.8c-0.6,0-1.3-0.2-1.6-0.4L12.6,8.8z"/>
	<path style="fill:#FFFFFF;" d="M17.7,8.8c0.4,0.2,0.9,0.4,1.5,0.4c0.7,0,1.1-0.3,1.1-0.8s-0.3-0.7-1.1-1c-1-0.4-1.6-0.9-1.6-1.8
		c0-1,0.8-1.7,2.2-1.7c0.7,0,1.1,0.1,1.4,0.3l-0.3,0.9c-0.2-0.1-0.6-0.3-1.2-0.3c-0.7,0-1,0.4-1,0.7c0,0.5,0.4,0.7,1.2,1
		c1.1,0.4,1.6,0.9,1.6,1.8c0,1-0.7,1.8-2.3,1.8c-0.6,0-1.3-0.2-1.6-0.4L17.7,8.8z"/>
</g>
</svg>
